<svg xmlns="http://www.w3.org/2000/svg" xmlns:svg="http://www.w3.org/2000/svg" id="svg4163" width="126mm" height="40mm" version="1.1" viewBox="0 0 446.457 141.732"><defs id="defs4165"><marker id="DistanceX" orient="auto" refX="0" refY="0" style="overflow:visible"><path id="path4801" d="M 3,-3 -3,3 M 0,-5 0,5" style="stroke:#000;stroke-width:.5"/></marker><pattern id="Hatch" width="8" height="8" x="0" y="0" patternUnits="userSpaceOnUse"><path id="path4804" stroke="#000" stroke-width=".25" d="M8 4 l-4,4" linecap="square"/><path id="path4806" stroke="#000" stroke-width=".25" d="M6 2 l-4,4" linecap="square"/><path id="path4808" stroke="#000" stroke-width=".25" d="M4 0 l-4,4" linecap="square"/></pattern></defs><metadata id="metadata4168"/><g id="toolEndmill" transform="translate(432.3958,91.570329)"><path style="fill:none;fill-rule:evenodd;stroke:red;stroke-width:2.5;stroke-linecap:butt;stroke-linejoin:miter;stroke-miterlimit:4;stroke-dasharray:none;stroke-opacity:1" id="path4849" d="m -405.0181,-62.47626 0.0137,16.38768 0.0561,12.55643 49.25412,-0.0642 0,-24.83493 -0.1381,-20.66349"/><path style="fill:none;fill-rule:evenodd;stroke:#000;stroke-width:2.5;stroke-linecap:butt;stroke-linejoin:miter;stroke-miterlimit:4;stroke-dasharray:none;stroke-opacity:1" id="path4174" d="m -361.19168,-85.61968 0,42.99979 -38.72779,0 0.39063,-42.43636 9.07701,7.0511 5.88203,-7.07361 7.32121,7.63704 4.05022,-8.30309 4.73482,4.56964 z"/><path style="fill:none;fill-rule:evenodd;stroke:#000;stroke-width:1px;stroke-linecap:butt;stroke-linejoin:miter;stroke-opacity:1" id="path4176" d="m -400.16673,-51.05607 38.39368,-13.81068"/><path style="fill:none;fill-rule:evenodd;stroke:#000;stroke-width:1px;stroke-linecap:butt;stroke-linejoin:miter;stroke-opacity:1" id="path4178" d="m -385.2512,-43.87451 c 2.76214,0 23.47815,-9.11505 23.47815,-9.11505"/><path style="fill:none;fill-rule:evenodd;stroke:#000;stroke-width:1px;stroke-linecap:butt;stroke-linejoin:miter;stroke-opacity:1" id="path4180" d="m -399.33809,-65.69539 38.11747,-13.81068"/></g><rect id="toolPath" width="114.218" height="89.59" x="301.956" y="18.95" ry="13.273" style="fill:red;fill-opacity:0;stroke:red;stroke-width:1.84457076;stroke-miterlimit:4;stroke-dasharray:none"/><rect id="jobOutside" width="138.176" height="109.136" x="289.961" y="9.362" ry="16.168" style="fill:red;fill-opacity:0;stroke:#00f;stroke-width:2.23900008;stroke-miterlimit:4;stroke-dasharray:2.23900015,2.23900015;stroke-dashoffset:0"/><rect id="jobInside" width="95.215" height="72.531" x="311.541" y="27.534" ry="10.745" style="fill:red;fill-opacity:0;stroke:#00f;stroke-width:1.51533973;stroke-miterlimit:4;stroke-dasharray:1.51533978,1.51533978;stroke-dashoffset:0"/><g id="jobPocket" transform="matrix(1.0013674,0,0,0.84944881,-283.77153,-849.28813)"><g id="g4380" transform="translate(-4.9096098,90.563331)"><rect id="rect4184-5-0" width="95.085" height="85.386" x="598.747" y="940.529" ry="12.65" style="fill:red;fill-opacity:0;stroke:#00f;stroke-width:1.78147352;stroke-miterlimit:4;stroke-dasharray:1.78147351,1.78147351;stroke-dashoffset:0"/><rect id="rect4184-5-0-9" width="83.556" height="76.006" x="604.511" y="944.926" ry="11.26" style="fill:red;fill-opacity:0;stroke:#00f;stroke-width:1.57558465;stroke-miterlimit:4;stroke-dasharray:1.5755847,1.5755847;stroke-dashoffset:0"/><rect id="rect4184-5-0-9-7" width="72.043" height="64.884" x="610.463" y="950.194" ry="9.612" style="fill:red;fill-opacity:0;stroke:#00f;stroke-width:1.35175025;stroke-miterlimit:4;stroke-dasharray:1.35175022,1.35175022;stroke-dashoffset:0"/><rect id="rect4184-5-0-9-7-6" width="61.027" height="54.221" x="616.499" y="956.073" ry="8.033" style="fill:red;fill-opacity:0;stroke:#00f;stroke-width:1.13730586;stroke-miterlimit:4;stroke-dasharray:1.13730582,1.13730582;stroke-dashoffset:0"/><rect id="rect4184-5-0-9-7-6-7" width="50.042" height="43.235" x="622.769" y="961.415" ry="6.405" style="fill:red;fill-opacity:0;stroke:#00f;stroke-width:.91963297;stroke-miterlimit:4;stroke-dasharray:.91963296,.91963296;stroke-dashoffset:0"/><rect id="rect4184-5-0-9-7-6-8" width="18.543" height="13.822" x="639.064" y="975.914" ry="2.048" style="fill:red;fill-opacity:0;stroke:#00f;stroke-width:.31652647;stroke-miterlimit:4;stroke-dasharray:.31652647,.31652647;stroke-dashoffset:0"/><rect id="rect4184-5-0-9-7-6-8-7" width="26.245" height="21.379" x="635.05" y="971.843" ry="3.167" style="fill:red;fill-opacity:0;stroke:#00f;stroke-width:.46831697;stroke-miterlimit:4;stroke-dasharray:.46831698,.46831698;stroke-dashoffset:0"/><rect id="rect4184-5-0-9-7-6-8-7-2" width="33.322" height="27.62" x="631.41" y="968.739" ry="4.092" style="fill:red;fill-opacity:0;stroke:#00f;stroke-width:.59979939;stroke-miterlimit:4;stroke-dasharray:.59979937,.59979937;stroke-dashoffset:0"/><rect id="rect4184-5-0-9-7-6-8-7-2-1" width="41.36" height="34.692" x="627.11" y="965.411" ry="5.14" style="fill:red;fill-opacity:0;stroke:#00f;stroke-width:.74892002;stroke-miterlimit:4;stroke-dasharray:.74892005,.74892005;stroke-dashoffset:0"/></g></g><text id="svgOpName" x="343.368" y="137.31" xml:space="preserve"><tspan id="tspan4370" x="343.368" y="137.31">Pocket</tspan></text><g id="toolDragknife" transform="translate(427.0925,486.31269)"><path style="fill:none;fill-rule:evenodd;stroke:#000;stroke-width:2.5;stroke-linecap:butt;stroke-linejoin:miter;stroke-miterlimit:4;stroke-dasharray:none;stroke-opacity:1" id="path4203" d="m -394.24594,-479.34114 0.21338,42.30401 15.43135,8.16574 7.77818,0 15.01085,-7.86656 c 0.58913,-0.30875 0.28032,-43.13352 0.28032,-43.13352 l -6.54072,3.53554 -6.01041,-4.06587 -1.94455,5.65686 -7.42462,-6.36396 c 0,0 0,7.24784 -0.88388,7.42462 -0.88388,0.17677 -10.07627,-6.36396 -10.07627,-6.36396 l -2.2981,4.59619 z"/><path style="fill:#999;fill-rule:evenodd;stroke:#000;stroke-width:1px;stroke-linecap:butt;stroke-linejoin:miter;stroke-opacity:1" id="path4205" d="m -378.52982,-428.30261 0,16.65806 7.90041,-14.24569 0.0205,-2.42033"/><path style="fill:none;fill-rule:evenodd;stroke:red;stroke-width:1px;stroke-linecap:butt;stroke-linejoin:miter;stroke-opacity:1" id="path4207" d="m -379.3967,-408.89563 0,4.41942 4.94975,0 0,-4.24264"/><path style="fill:none;fill-rule:evenodd;stroke:#000;stroke-width:.88800001;stroke-linecap:butt;stroke-linejoin:miter;stroke-miterlimit:4;stroke-dasharray:.888,1.776;stroke-dashoffset:0;stroke-opacity:1" id="path4276" d="m -374.65047,-409.79842 0.0749,-6.89125"/></g><g id="jobDragknife" transform="translate(-293.44932,-241.47697)"><rect style="fill:none;fill-opacity:1;stroke:red;stroke-width:2.00600004;stroke-miterlimit:4;stroke-dasharray:none;stroke-dashoffset:0" id="rect4386" width="114.545" height="89.443" x="593.885" y="260.139" ry="0"/><path style="fill:none;fill-rule:evenodd;stroke:#00f;stroke-width:2.5;stroke-linecap:butt;stroke-linejoin:miter;stroke-miterlimit:4;stroke-dasharray:2.50000007,2.50000007;stroke-dashoffset:0;stroke-opacity:1" id="path4400" d="m 605.11943,258.00361 117.79332,0.36428 -0.76777,4.85507 -2.66942,4.0962 -5.20863,2.71599 -3.35875,0.53033 -1.00889,91.97198 -5.3033,-0.16422 -3.97119,-2.10875 -2.75,-3.89797 -1.59099,-4.78554 -117.3635,-0.0518 0.20711,-4.88541 3.0052,-4.80698 4.50153,-2.50521 4.77297,0 0.70711,-91.7471 4.82474,0.36244 4.4512,2.19324 2.88611,4.19584 0.75889,3.66942"/></g><g id="toolLaser" transform="translate(429.92092,361.15479)"><path style="fill:none;fill-rule:evenodd;stroke:#000;stroke-width:2.5;stroke-linecap:butt;stroke-linejoin:miter;stroke-miterlimit:4;stroke-dasharray:none;stroke-opacity:1" id="path4420" d="m -397.01991,-355.86418 0,43.94532 19.33594,17.96874 19.14062,-17.87109 0.19531,-43.65234"/><path style="fill:none;fill-rule:evenodd;stroke:red;stroke-width:.99999994;stroke-linecap:butt;stroke-linejoin:miter;stroke-miterlimit:4;stroke-dasharray:.99999997,.99999997;stroke-dashoffset:0;stroke-opacity:1" id="path4424" d="m -377.78163,-291.31339 0,19.33594"/><path style="fill:none;fill-rule:evenodd;stroke:#000;stroke-width:1px;stroke-linecap:butt;stroke-linejoin:miter;stroke-opacity:1" id="path4278" d="m -396.85686,-314.60812 38.00699,0"/><path style="fill:none;fill-rule:evenodd;stroke:#000;stroke-width:1px;stroke-linecap:butt;stroke-linejoin:miter;stroke-opacity:1" id="path4280" d="m -397.03365,-322.38629 37.47667,0"/><path style="fill:none;fill-rule:evenodd;stroke:#000;stroke-width:2.5;stroke-linecap:butt;stroke-linejoin:miter;stroke-miterlimit:4;stroke-dasharray:none;stroke-opacity:1" id="path4282" d="m -396.59399,-355.15286 2.875,-4.5 6.375,7.375 6.875,-7.375 8.375,8.75 5.5,-7.25 8.125,3.625"/></g><g id="jobLaserraster" transform="translate(-282.13561,-35.708893)"><path style="fill:red;stroke:red" id="path5020" d="m 609.88835,132.78768 c -1.80716,-0.38381 -3.74975,-2.03216 -4.56039,-3.86963 l -0.44805,-1.01557 0,-28.1469 0,-28.1469 0.45264,-1.02623 c 0.8551,-1.93874 2.70235,-3.46853 4.66663,-3.86465 1.25786,-0.25366 66.26392,-0.25366 67.52179,0 1.96428,0.39612 3.81152,1.92591 4.66663,3.86465 l 0.45263,1.02623 0,28.1469 0,28.1469 -0.44804,1.01557 c -0.59863,1.35689 -1.89582,2.69981 -3.28326,3.39901 l -1.12872,0.56881 -33.58621,0.0273 c -18.47241,0.015 -33.90996,-0.0414 -34.30565,-0.12549 z m 67.14736,-5.59825 c 0.1633,-0.13194 0.3781,-0.46693 0.47732,-0.74442 0.25127,-0.70277 0.25127,-52.67609 0,-53.37886 -0.37544,-1.05004 1.87857,-0.98431 -33.75296,-0.98431 -35.63153,0 -33.37752,-0.0657 -33.75295,0.98431 -0.25127,0.70277 -0.25127,52.67609 0,53.37886 0.37543,1.05004 -1.87858,0.98431 33.75295,0.98431 26.78742,0 33.03445,-0.045 33.27564,-0.23989 z m -61.82825,-9.48352 0,-4.19806 6.46429,-6.87571 6.46429,-6.87571 3.25634,3.45906 3.25633,3.45906 10.41367,-11.07235 10.41368,-11.07234 8.41831,8.95028 8.41832,8.95027 0,9.73678 0,9.73677 -28.55262,0 -28.55261,0 0,-4.19805 z M 621.31308,94.021 c -1.2989,-0.27182 -2.61483,-1.04407 -3.74427,-2.19732 -1.80023,-1.83821 -2.46292,-3.70019 -2.32377,-6.52914 0.0703,-1.42882 0.17445,-1.90631 0.64415,-2.95283 1.70988,-3.80974 6.07907,-5.67397 9.7869,-4.17584 3.09555,1.25074 4.97929,4.19109 4.97929,7.77223 0,2.49178 -0.73384,4.26624 -2.49349,6.02939 -1.84811,1.85178 -4.29986,2.5869 -6.84881,2.0535 z"/><path style="fill:none;fill-rule:evenodd;stroke:#00f;stroke-width:1;stroke-linecap:butt;stroke-linejoin:miter;stroke-miterlimit:4;stroke-dasharray:1,1;stroke-dashoffset:0;stroke-opacity:1" id="path4362" d="m 587.4604,139.84008 113.13709,0"/><path style="fill:none;fill-rule:evenodd;stroke:#00f;stroke-width:1;stroke-linecap:butt;stroke-linejoin:miter;stroke-miterlimit:4;stroke-dasharray:1,1;stroke-dashoffset:0;stroke-opacity:1" id="path4362-0" d="m 587.4604,135.24387 113.13709,0"/><path style="fill:none;fill-rule:evenodd;stroke:#00f;stroke-width:1;stroke-linecap:butt;stroke-linejoin:miter;stroke-miterlimit:4;stroke-dasharray:1,1;stroke-dashoffset:0;stroke-opacity:1" id="path4362-4" d="m 587.51686,130.39101 113.13709,0"/><path style="fill:none;fill-rule:evenodd;stroke:#00f;stroke-width:1;stroke-linecap:butt;stroke-linejoin:miter;stroke-miterlimit:4;stroke-dasharray:1,1;stroke-dashoffset:0;stroke-opacity:1" id="path4362-0-8" d="m 587.51686,125.7948 113.13709,0"/><path style="fill:none;fill-rule:evenodd;stroke:#00f;stroke-width:1;stroke-linecap:butt;stroke-linejoin:miter;stroke-miterlimit:4;stroke-dasharray:1,1;stroke-dashoffset:0;stroke-opacity:1" id="path4362-4-5" d="m 587.26686,121.14101 113.13709,0"/><path style="fill:none;fill-rule:evenodd;stroke:#00f;stroke-width:1;stroke-linecap:butt;stroke-linejoin:miter;stroke-miterlimit:4;stroke-dasharray:1,1;stroke-dashoffset:0;stroke-opacity:1" id="path4362-0-8-2" d="m 587.26686,116.5448 113.13709,0"/><path style="fill:none;fill-rule:evenodd;stroke:#00f;stroke-width:1;stroke-linecap:butt;stroke-linejoin:miter;stroke-miterlimit:4;stroke-dasharray:1,1;stroke-dashoffset:0;stroke-opacity:1" id="path4362-8" d="m 586.88296,111.3594 113.13709,0"/><path style="fill:none;fill-rule:evenodd;stroke:#00f;stroke-width:1;stroke-linecap:butt;stroke-linejoin:miter;stroke-miterlimit:4;stroke-dasharray:1,1;stroke-dashoffset:0;stroke-opacity:1" id="path4362-0-9" d="m 586.88296,106.76319 113.13709,0"/><path style="fill:none;fill-rule:evenodd;stroke:#00f;stroke-width:1;stroke-linecap:butt;stroke-linejoin:miter;stroke-miterlimit:4;stroke-dasharray:1,1;stroke-dashoffset:0;stroke-opacity:1" id="path4362-4-3" d="m 586.93942,101.91033 113.13709,0"/><path style="fill:none;fill-rule:evenodd;stroke:#00f;stroke-width:1;stroke-linecap:butt;stroke-linejoin:miter;stroke-miterlimit:4;stroke-dasharray:1,1;stroke-dashoffset:0;stroke-opacity:1" id="path4362-0-8-3" d="m 586.93942,97.31412 113.13709,0"/><path style="fill:none;fill-rule:evenodd;stroke:#00f;stroke-width:1;stroke-linecap:butt;stroke-linejoin:miter;stroke-miterlimit:4;stroke-dasharray:1,1;stroke-dashoffset:0;stroke-opacity:1" id="path4362-4-5-6" d="m 586.68942,92.66033 113.13709,0"/><path style="fill:none;fill-rule:evenodd;stroke:#00f;stroke-width:1;stroke-linecap:butt;stroke-linejoin:miter;stroke-miterlimit:4;stroke-dasharray:1,1;stroke-dashoffset:0;stroke-opacity:1" id="path4362-0-8-2-5" d="m 586.68942,88.06412 113.13709,0"/><path style="fill:none;fill-rule:evenodd;stroke:#00f;stroke-width:1;stroke-linecap:butt;stroke-linejoin:miter;stroke-miterlimit:4;stroke-dasharray:1,1;stroke-dashoffset:0;stroke-opacity:1" id="path4362-49" d="m 586.35263,83.60546 113.13709,0"/><path style="fill:none;fill-rule:evenodd;stroke:#00f;stroke-width:1;stroke-linecap:butt;stroke-linejoin:miter;stroke-miterlimit:4;stroke-dasharray:1,1;stroke-dashoffset:0;stroke-opacity:1" id="path4362-0-0" d="m 586.35263,79.00925 113.13709,0"/><path style="fill:none;fill-rule:evenodd;stroke:#00f;stroke-width:1;stroke-linecap:butt;stroke-linejoin:miter;stroke-miterlimit:4;stroke-dasharray:1,1;stroke-dashoffset:0;stroke-opacity:1" id="path4362-4-7" d="m 586.40909,74.15639 113.13709,0"/><path style="fill:none;fill-rule:evenodd;stroke:#00f;stroke-width:1;stroke-linecap:butt;stroke-linejoin:miter;stroke-miterlimit:4;stroke-dasharray:1,1;stroke-dashoffset:0;stroke-opacity:1" id="path4362-0-8-4" d="m 586.40909,69.56018 113.13709,0"/><path style="fill:none;fill-rule:evenodd;stroke:#00f;stroke-width:1;stroke-linecap:butt;stroke-linejoin:miter;stroke-miterlimit:4;stroke-dasharray:1,1;stroke-dashoffset:0;stroke-opacity:1" id="path4362-4-5-8" d="m 586.15909,64.90639 113.13709,0"/><path style="fill:none;fill-rule:evenodd;stroke:#00f;stroke-width:1;stroke-linecap:butt;stroke-linejoin:miter;stroke-miterlimit:4;stroke-dasharray:1,1;stroke-dashoffset:0;stroke-opacity:1" id="path4362-0-8-2-2" d="m 586.15909,60.31018 113.13709,0"/></g><g id="toolVBit" transform="translate(429.74415,239.17887)"><path style="fill:none;fill-rule:evenodd;stroke:red;stroke-width:2.5;stroke-linecap:butt;stroke-linejoin:miter;stroke-miterlimit:4;stroke-dasharray:none;stroke-opacity:1" id="path4849-3" d="m -402.30948,-210.0715 0.0137,16.38768 0.0561,12.55643 49.25412,-0.0642 0,-24.83493 -0.1381,-20.66349"/><path style="fill:none;fill-rule:evenodd;stroke:#000;stroke-width:2.5;stroke-linecap:butt;stroke-linejoin:miter;stroke-miterlimit:4;stroke-dasharray:none;stroke-opacity:1" id="path4174-3" d="m -358.48306,-233.21492 -0.5,25.74979 -18.65612,17.25 -19.07167,-17.5 -0.10937,-24.93636 9.07701,7.0511 5.88203,-7.07361 7.32121,7.63704 4.05022,-8.30309 4.73482,4.56964 z"/><path style="fill:none;fill-rule:evenodd;stroke:red;stroke-width:2.5;stroke-linecap:butt;stroke-linejoin:miter;stroke-miterlimit:4;stroke-dasharray:none;stroke-opacity:1" id="path4338" d="m -398.59801,-172.47693 22.45064,23.68808 19.09188,-23.68808"/><path style="fill:none;fill-rule:evenodd;stroke:maroon;stroke-width:1;stroke-linecap:butt;stroke-linejoin:miter;stroke-miterlimit:4;stroke-dasharray:1,2;stroke-dashoffset:0;stroke-opacity:1" id="path4340" d="m -385.57668,-160.07391 1.4375,-1.4375 2.25,-1.4375 2.3125,-1.25 3.0625,-0.3125 3.0625,0.25 2.75,0.9375 2.1875,1.125 1.5,1.0625"/><path style="fill:none;fill-rule:evenodd;stroke:#000;stroke-width:1px;stroke-linecap:butt;stroke-linejoin:miter;stroke-opacity:1" id="path4446" d="m -388.03781,-201.0068 c 0,-1 25.25,-12.5 25.25,-12.5 l 3.25,-1.5"/><path style="fill:none;fill-rule:evenodd;stroke:#000;stroke-width:1px;stroke-linecap:butt;stroke-linejoin:miter;stroke-opacity:1" id="path4448" d="m -395.78781,-210.0068 36.5,-17.75"/><path style="fill:none;fill-rule:evenodd;stroke:#000;stroke-width:1px;stroke-linecap:butt;stroke-linejoin:miter;stroke-opacity:1" id="path4450" d="m -396.78781,-220.0068 19,-7.25"/><path style="fill:none;fill-rule:evenodd;stroke:#000;stroke-width:1px;stroke-linecap:butt;stroke-linejoin:miter;stroke-opacity:1" id="path4452" d="m -381.78781,-194.5068 c 1.25,-1.25 6.5,-8.75 6.5,-8.75 l 2.25,8.25"/></g><g id="jobVPeck" transform="translate(-282.13561,53.740116)"><ellipse style="fill:none;fill-opacity:1;stroke:red;stroke-width:2.75363588;stroke-miterlimit:4;stroke-dasharray:none;stroke-dashoffset:0" id="path4239-0-1" cx="599.731" cy="-22.62" rx="1.373" ry="1.436"/><ellipse style="fill:none;fill-opacity:1;stroke:red;stroke-width:3.43446326;stroke-miterlimit:4;stroke-dasharray:none;stroke-dashoffset:0" id="path4239-2-69-6" cx="607.669" cy="-22.37" rx="1.783" ry="1.72"/><ellipse style="fill:none;fill-opacity:1;stroke:red;stroke-width:2.93157744;stroke-miterlimit:4;stroke-dasharray:none;stroke-dashoffset:0" id="path4239-8-9-7" cx="615.669" cy="-22.995" rx="1.347" ry="1.659"/><ellipse style="fill:none;fill-opacity:1;stroke:red;stroke-width:2.04042029;stroke-miterlimit:4;stroke-dasharray:none;stroke-dashoffset:0" id="path4239-5-4-0" cx="623.356" cy="-22.808" rx=".98" ry="1.105"/><ellipse style="fill:none;fill-opacity:1;stroke:red;stroke-width:3.75;stroke-miterlimit:4;stroke-dasharray:none;stroke-dashoffset:0" id="path4239-6-85-2" cx="631.919" cy="-22.745" rx="1.625" ry="2.25"/><ellipse style="fill:none;fill-opacity:1;stroke:red;stroke-width:3.75;stroke-miterlimit:4;stroke-dasharray:none;stroke-dashoffset:0" id="path4239-22-5-3" cx="591.731" cy="-22.433" rx="1.625" ry="2.25"/><ellipse style="fill:none;fill-opacity:1;stroke:red;stroke-width:3.75;stroke-miterlimit:4;stroke-dasharray:none;stroke-dashoffset:0" id="path4239-7-9-5" cx="648.263" cy="-22.777" rx="1.625" ry="2.25"/><ellipse style="fill:none;fill-opacity:1;stroke:red;stroke-width:3.75;stroke-miterlimit:4;stroke-dasharray:none;stroke-dashoffset:0" id="path4239-2-4-7-6" cx="656.075" cy="-22.652" rx="1.625" ry="2.25"/><ellipse style="fill:none;fill-opacity:1;stroke:red;stroke-width:2.58145666;stroke-miterlimit:4;stroke-dasharray:none;stroke-dashoffset:0" id="path4239-8-5-5-8" cx="663.961" cy="-22.751" rx="1.149" ry="1.508"/><ellipse style="fill:none;fill-opacity:1;stroke:red;stroke-width:3.75;stroke-miterlimit:4;stroke-dasharray:none;stroke-dashoffset:0" id="path4239-5-6-4-1" cx="672.263" cy="-22.902" rx="1.625" ry="2.25"/><ellipse style="fill:none;fill-opacity:1;stroke:red;stroke-width:2.51262236;stroke-miterlimit:4;stroke-dasharray:none;stroke-dashoffset:0" id="path4239-6-3-1-9" cx="680.502" cy="-23.318" rx="1.006" ry="1.631"/><ellipse style="fill:none;fill-opacity:1;stroke:red;stroke-width:2.95568013;stroke-miterlimit:4;stroke-dasharray:none;stroke-dashoffset:0" id="path4239-22-1-3-9" cx="639.872" cy="-22.74" rx="1.227" ry="1.852"/><ellipse style="fill:none;fill-opacity:1;stroke:red;stroke-width:3.75;stroke-miterlimit:4;stroke-dasharray:none;stroke-dashoffset:0" id="path4239-5-6-0-5-6" cx="688.515" cy="-22.8" rx="1.625" ry="2.25"/><ellipse style="fill:none;fill-opacity:1;stroke:red;stroke-width:2.54280019;stroke-miterlimit:4;stroke-dasharray:none;stroke-dashoffset:0" id="path4239-6-3-9-9-6" cx="696.578" cy="-23.039" rx="1.168" ry="1.439"/><ellipse style="fill:none;fill-opacity:1;stroke:red;stroke-width:2.75363588;stroke-miterlimit:4;stroke-dasharray:none;stroke-dashoffset:0" id="path4239-0-1-4" cx="656.622" cy="-13.891" rx="1.373" ry="1.436"/><ellipse style="fill:none;fill-opacity:1;stroke:red;stroke-width:3.43446326;stroke-miterlimit:4;stroke-dasharray:none;stroke-dashoffset:0" id="path4239-2-69-6-7" cx="664.56" cy="-13.641" rx="1.783" ry="1.72"/><ellipse style="fill:none;fill-opacity:1;stroke:red;stroke-width:2.93157744;stroke-miterlimit:4;stroke-dasharray:none;stroke-dashoffset:0" id="path4239-8-9-7-7" cx="672.56" cy="-14.266" rx="1.347" ry="1.659"/><ellipse style="fill:none;fill-opacity:1;stroke:red;stroke-width:2.04042029;stroke-miterlimit:4;stroke-dasharray:none;stroke-dashoffset:0" id="path4239-5-4-0-6" cx="680.247" cy="-14.079" rx=".98" ry="1.105"/><ellipse style="fill:none;fill-opacity:1;stroke:red;stroke-width:3.75;stroke-miterlimit:4;stroke-dasharray:none;stroke-dashoffset:0" id="path4239-6-85-2-6" cx="688.81" cy="-14.016" rx="1.625" ry="2.25"/><ellipse style="fill:none;fill-opacity:1;stroke:red;stroke-width:2.53588033;stroke-miterlimit:4;stroke-dasharray:none;stroke-dashoffset:0" id="path4239-22-5-3-1" cx="648.497" cy="-13.454" rx="1.232" ry="1.357"/><ellipse style="fill:none;fill-opacity:1;stroke:red;stroke-width:2.95568013;stroke-miterlimit:4;stroke-dasharray:none;stroke-dashoffset:0" id="path4239-22-1-3-9-6" cx="696.763" cy="-14.011" rx="1.227" ry="1.852"/><ellipse style="fill:none;fill-opacity:1;stroke:red;stroke-width:3.75;stroke-miterlimit:4;stroke-dasharray:none;stroke-dashoffset:0" id="path4239-7-9-5-7-2" cx="599.524" cy="-13.217" rx="1.625" ry="2.25"/><ellipse style="fill:none;fill-opacity:1;stroke:red;stroke-width:3.75;stroke-miterlimit:4;stroke-dasharray:none;stroke-dashoffset:0" id="path4239-2-4-7-6-1-2" cx="607.336" cy="-13.092" rx="1.625" ry="2.25"/><ellipse style="fill:none;fill-opacity:1;stroke:red;stroke-width:2.58145666;stroke-miterlimit:4;stroke-dasharray:none;stroke-dashoffset:0" id="path4239-8-5-5-8-2-8" cx="615.222" cy="-13.191" rx="1.149" ry="1.508"/><ellipse style="fill:none;fill-opacity:1;stroke:red;stroke-width:3.75;stroke-miterlimit:4;stroke-dasharray:none;stroke-dashoffset:0" id="path4239-5-6-4-1-3-3" cx="623.524" cy="-13.342" rx="1.625" ry="2.25"/><ellipse style="fill:none;fill-opacity:1;stroke:red;stroke-width:2.51262236;stroke-miterlimit:4;stroke-dasharray:none;stroke-dashoffset:0" id="path4239-6-3-1-9-5-3" cx="631.763" cy="-13.758" rx="1.006" ry="1.631"/><ellipse style="fill:none;fill-opacity:1;stroke:red;stroke-width:2.95568013;stroke-miterlimit:4;stroke-dasharray:none;stroke-dashoffset:0" id="path4239-22-1-3-9-6-0" cx="591.134" cy="-13.18" rx="1.227" ry="1.852"/><ellipse style="fill:none;fill-opacity:1;stroke:red;stroke-width:3.75;stroke-miterlimit:4;stroke-dasharray:none;stroke-dashoffset:0" id="path4239-5-6-0-5-6-9-5" cx="639.777" cy="-13.24" rx="1.625" ry="2.25"/><ellipse style="fill:none;fill-opacity:1;stroke:red;stroke-width:2.75363588;stroke-miterlimit:4;stroke-dasharray:none;stroke-dashoffset:0" id="path4239-0-1-1" cx="592.767" cy="-4.231" rx="1.373" ry="1.436"/><ellipse style="fill:none;fill-opacity:1;stroke:red;stroke-width:3.43446326;stroke-miterlimit:4;stroke-dasharray:none;stroke-dashoffset:0" id="path4239-2-69-6-6" cx="600.705" cy="-3.981" rx="1.783" ry="1.72"/><ellipse style="fill:none;fill-opacity:1;stroke:red;stroke-width:2.93157744;stroke-miterlimit:4;stroke-dasharray:none;stroke-dashoffset:0" id="path4239-8-9-7-0" cx="608.705" cy="-4.606" rx="1.347" ry="1.659"/><ellipse style="fill:none;fill-opacity:1;stroke:red;stroke-width:2.04042029;stroke-miterlimit:4;stroke-dasharray:none;stroke-dashoffset:0" id="path4239-5-4-0-9" cx="616.392" cy="-4.418" rx=".98" ry="1.105"/><ellipse style="fill:none;fill-opacity:1;stroke:red;stroke-width:3.75;stroke-miterlimit:4;stroke-dasharray:none;stroke-dashoffset:0" id="path4239-6-85-2-1" cx="624.955" cy="-4.356" rx="1.625" ry="2.25"/><ellipse style="fill:none;fill-opacity:1;stroke:red;stroke-width:3.75;stroke-miterlimit:4;stroke-dasharray:none;stroke-dashoffset:0" id="path4239-22-5-3-13" cx="584.767" cy="-4.043" rx="1.625" ry="2.25"/><ellipse style="fill:none;fill-opacity:1;stroke:red;stroke-width:3.75;stroke-miterlimit:4;stroke-dasharray:none;stroke-dashoffset:0" id="path4239-7-9-5-8" cx="641.299" cy="-4.387" rx="1.625" ry="2.25"/><ellipse style="fill:none;fill-opacity:1;stroke:red;stroke-width:3.75;stroke-miterlimit:4;stroke-dasharray:none;stroke-dashoffset:0" id="path4239-2-4-7-6-1" cx="649.111" cy="-4.262" rx="1.625" ry="2.25"/><ellipse style="fill:none;fill-opacity:1;stroke:red;stroke-width:2.58145666;stroke-miterlimit:4;stroke-dasharray:none;stroke-dashoffset:0" id="path4239-8-5-5-8-8" cx="656.997" cy="-4.361" rx="1.149" ry="1.508"/><ellipse style="fill:none;fill-opacity:1;stroke:red;stroke-width:3.75;stroke-miterlimit:4;stroke-dasharray:none;stroke-dashoffset:0" id="path4239-5-6-4-1-8" cx="665.299" cy="-4.512" rx="1.625" ry="2.25"/><ellipse style="fill:none;fill-opacity:1;stroke:red;stroke-width:2.51262236;stroke-miterlimit:4;stroke-dasharray:none;stroke-dashoffset:0" id="path4239-6-3-1-9-9" cx="673.538" cy="-4.928" rx="1.006" ry="1.631"/><ellipse style="fill:none;fill-opacity:1;stroke:red;stroke-width:2.95568013;stroke-miterlimit:4;stroke-dasharray:none;stroke-dashoffset:0" id="path4239-22-1-3-9-1" cx="632.909" cy="-4.351" rx="1.227" ry="1.852"/><ellipse style="fill:none;fill-opacity:1;stroke:red;stroke-width:3.75;stroke-miterlimit:4;stroke-dasharray:none;stroke-dashoffset:0" id="path4239-5-6-0-5-6-4" cx="681.551" cy="-4.411" rx="1.625" ry="2.25"/><ellipse style="fill:none;fill-opacity:1;stroke:red;stroke-width:2.54280019;stroke-miterlimit:4;stroke-dasharray:none;stroke-dashoffset:0" id="path4239-6-3-9-9-6-7" cx="689.614" cy="-4.65" rx="1.168" ry="1.439"/><ellipse style="fill:none;fill-opacity:1;stroke:red;stroke-width:2.75363588;stroke-miterlimit:4;stroke-dasharray:none;stroke-dashoffset:0" id="path4239-0-1-4-8" cx="649.658" cy="4.498" rx="1.373" ry="1.436"/><ellipse style="fill:none;fill-opacity:1;stroke:red;stroke-width:3.43446326;stroke-miterlimit:4;stroke-dasharray:none;stroke-dashoffset:0" id="path4239-2-69-6-7-9" cx="657.596" cy="4.748" rx="1.783" ry="1.72"/><ellipse style="fill:none;fill-opacity:1;stroke:red;stroke-width:2.93157744;stroke-miterlimit:4;stroke-dasharray:none;stroke-dashoffset:0" id="path4239-8-9-7-7-6" cx="665.596" cy="4.123" rx="1.347" ry="1.659"/><ellipse style="fill:none;fill-opacity:1;stroke:red;stroke-width:2.04042029;stroke-miterlimit:4;stroke-dasharray:none;stroke-dashoffset:0" id="path4239-5-4-0-6-2" cx="673.283" cy="4.311" rx=".98" ry="1.105"/><ellipse style="fill:none;fill-opacity:1;stroke:red;stroke-width:3.75;stroke-miterlimit:4;stroke-dasharray:none;stroke-dashoffset:0" id="path4239-6-85-2-6-2" cx="681.846" cy="4.373" rx="1.625" ry="2.25"/><ellipse style="fill:none;fill-opacity:1;stroke:red;stroke-width:2.53588033;stroke-miterlimit:4;stroke-dasharray:none;stroke-dashoffset:0" id="path4239-22-5-3-1-6" cx="641.533" cy="4.936" rx="1.232" ry="1.357"/><ellipse style="fill:none;fill-opacity:1;stroke:red;stroke-width:2.95568013;stroke-miterlimit:4;stroke-dasharray:none;stroke-dashoffset:0" id="path4239-22-1-3-9-6-06" cx="689.799" cy="4.378" rx="1.227" ry="1.852"/><ellipse style="fill:none;fill-opacity:1;stroke:red;stroke-width:3.75;stroke-miterlimit:4;stroke-dasharray:none;stroke-dashoffset:0" id="path4239-7-9-5-7-2-8" cx="592.56" cy="5.173" rx="1.625" ry="2.25"/><ellipse style="fill:none;fill-opacity:1;stroke:red;stroke-width:3.75;stroke-miterlimit:4;stroke-dasharray:none;stroke-dashoffset:0" id="path4239-2-4-7-6-1-2-8" cx="600.373" cy="5.298" rx="1.625" ry="2.25"/><ellipse style="fill:none;fill-opacity:1;stroke:red;stroke-width:2.58145666;stroke-miterlimit:4;stroke-dasharray:none;stroke-dashoffset:0" id="path4239-8-5-5-8-2-8-8" cx="608.258" cy="5.199" rx="1.149" ry="1.508"/><ellipse style="fill:none;fill-opacity:1;stroke:red;stroke-width:3.75;stroke-miterlimit:4;stroke-dasharray:none;stroke-dashoffset:0" id="path4239-5-6-4-1-3-3-7" cx="616.56" cy="5.048" rx="1.625" ry="2.25"/><ellipse style="fill:none;fill-opacity:1;stroke:red;stroke-width:2.51262236;stroke-miterlimit:4;stroke-dasharray:none;stroke-dashoffset:0" id="path4239-6-3-1-9-5-3-4" cx="624.799" cy="4.632" rx="1.006" ry="1.631"/><ellipse style="fill:none;fill-opacity:1;stroke:red;stroke-width:2.95568013;stroke-miterlimit:4;stroke-dasharray:none;stroke-dashoffset:0" id="path4239-22-1-3-9-6-0-9" cx="584.17" cy="5.209" rx="1.227" ry="1.852"/><ellipse style="fill:none;fill-opacity:1;stroke:red;stroke-width:3.75;stroke-miterlimit:4;stroke-dasharray:none;stroke-dashoffset:0" id="path4239-5-6-0-5-6-9-5-2" cx="632.813" cy="5.149" rx="1.625" ry="2.25"/><ellipse style="fill:none;fill-opacity:1;stroke:red;stroke-width:2.75363588;stroke-miterlimit:4;stroke-dasharray:none;stroke-dashoffset:0" id="path4239-0-1-8" cx="625.017" cy="14.019" rx="1.373" ry="1.436"/><ellipse style="fill:none;fill-opacity:1;stroke:red;stroke-width:3.43446326;stroke-miterlimit:4;stroke-dasharray:none;stroke-dashoffset:0" id="path4239-2-69-6-62" cx="632.955" cy="14.269" rx="1.783" ry="1.72"/><ellipse style="fill:none;fill-opacity:1;stroke:red;stroke-width:2.93157744;stroke-miterlimit:4;stroke-dasharray:none;stroke-dashoffset:0" id="path4239-8-9-7-76" cx="640.955" cy="13.644" rx="1.347" ry="1.659"/><ellipse style="fill:none;fill-opacity:1;stroke:red;stroke-width:2.04042029;stroke-miterlimit:4;stroke-dasharray:none;stroke-dashoffset:0" id="path4239-5-4-0-3" cx="648.642" cy="13.832" rx=".98" ry="1.105"/><ellipse style="fill:none;fill-opacity:1;stroke:red;stroke-width:3.75;stroke-miterlimit:4;stroke-dasharray:none;stroke-dashoffset:0" id="path4239-6-85-2-8" cx="657.205" cy="13.894" rx="1.625" ry="2.25"/><ellipse style="fill:none;fill-opacity:1;stroke:red;stroke-width:3.75;stroke-miterlimit:4;stroke-dasharray:none;stroke-dashoffset:0" id="path4239-22-5-3-3" cx="617.017" cy="14.207" rx="1.625" ry="2.25"/><ellipse style="fill:none;fill-opacity:1;stroke:red;stroke-width:3.75;stroke-miterlimit:4;stroke-dasharray:none;stroke-dashoffset:0" id="path4239-7-9-5-1" cx="673.549" cy="13.863" rx="1.625" ry="2.25"/><ellipse style="fill:none;fill-opacity:1;stroke:red;stroke-width:3.75;stroke-miterlimit:4;stroke-dasharray:none;stroke-dashoffset:0" id="path4239-2-4-7-6-9" cx="681.361" cy="13.988" rx="1.625" ry="2.25"/><ellipse style="fill:none;fill-opacity:1;stroke:red;stroke-width:2.58145666;stroke-miterlimit:4;stroke-dasharray:none;stroke-dashoffset:0" id="path4239-8-5-5-8-81" cx="689.247" cy="13.889" rx="1.149" ry="1.508"/><ellipse style="fill:none;fill-opacity:1;stroke:red;stroke-width:3.75;stroke-miterlimit:4;stroke-dasharray:none;stroke-dashoffset:0" id="path4239-5-6-4-1-7" cx="583.549" cy="-22.262" rx="1.625" ry="2.25"/><ellipse style="fill:none;fill-opacity:1;stroke:red;stroke-width:2.51262236;stroke-miterlimit:4;stroke-dasharray:none;stroke-dashoffset:0" id="path4239-6-3-1-9-96" cx="601.538" cy="14.572" rx="1.006" ry="1.631"/><ellipse style="fill:none;fill-opacity:1;stroke:red;stroke-width:2.95568013;stroke-miterlimit:4;stroke-dasharray:none;stroke-dashoffset:0" id="path4239-22-1-3-9-2" cx="665.159" cy="13.899" rx="1.227" ry="1.852"/><ellipse style="fill:none;fill-opacity:1;stroke:red;stroke-width:3.75;stroke-miterlimit:4;stroke-dasharray:none;stroke-dashoffset:0" id="path4239-5-6-0-5-6-49" cx="585.551" cy="13.839" rx="1.625" ry="2.25"/><ellipse style="fill:none;fill-opacity:1;stroke:red;stroke-width:2.54280019;stroke-miterlimit:4;stroke-dasharray:none;stroke-dashoffset:0" id="path4239-6-3-9-9-6-5" cx="593.614" cy="13.6" rx="1.168" ry="1.439"/><ellipse style="fill:none;fill-opacity:1;stroke:red;stroke-width:2.75363588;stroke-miterlimit:4;stroke-dasharray:none;stroke-dashoffset:0" id="path4239-0-1-4-3" cx="681.908" cy="22.748" rx="1.373" ry="1.436"/><ellipse style="fill:none;fill-opacity:1;stroke:red;stroke-width:3.43446326;stroke-miterlimit:4;stroke-dasharray:none;stroke-dashoffset:0" id="path4239-2-69-6-7-2" cx="584.096" cy="-13.502" rx="1.783" ry="1.72"/><ellipse style="fill:none;fill-opacity:1;stroke:red;stroke-width:2.93157744;stroke-miterlimit:4;stroke-dasharray:none;stroke-dashoffset:0" id="path4239-8-9-7-7-60" cx="690.096" cy="22.873" rx="1.347" ry="1.659"/><ellipse style="fill:none;fill-opacity:1;stroke:red;stroke-width:2.04042029;stroke-miterlimit:4;stroke-dasharray:none;stroke-dashoffset:0" id="path4239-5-4-0-6-26" cx="601.283" cy="23.811" rx=".98" ry="1.105"/><ellipse style="fill:none;fill-opacity:1;stroke:red;stroke-width:3.75;stroke-miterlimit:4;stroke-dasharray:none;stroke-dashoffset:0" id="path4239-6-85-2-6-4" cx="585.846" cy="22.623" rx="1.625" ry="2.25"/><ellipse style="fill:none;fill-opacity:1;stroke:red;stroke-width:2.53588033;stroke-miterlimit:4;stroke-dasharray:none;stroke-dashoffset:0" id="path4239-22-5-3-1-0" cx="673.783" cy="23.186" rx="1.232" ry="1.357"/><ellipse style="fill:none;fill-opacity:1;stroke:red;stroke-width:2.95568013;stroke-miterlimit:4;stroke-dasharray:none;stroke-dashoffset:0" id="path4239-22-1-3-9-6-1" cx="593.799" cy="22.628" rx="1.227" ry="1.852"/><ellipse style="fill:none;fill-opacity:1;stroke:red;stroke-width:3.75;stroke-miterlimit:4;stroke-dasharray:none;stroke-dashoffset:0" id="path4239-7-9-5-7-2-4" cx="624.81" cy="23.423" rx="1.625" ry="2.25"/><ellipse style="fill:none;fill-opacity:1;stroke:red;stroke-width:3.75;stroke-miterlimit:4;stroke-dasharray:none;stroke-dashoffset:0" id="path4239-2-4-7-6-1-2-4" cx="632.623" cy="23.548" rx="1.625" ry="2.25"/><ellipse style="fill:none;fill-opacity:1;stroke:red;stroke-width:2.58145666;stroke-miterlimit:4;stroke-dasharray:none;stroke-dashoffset:0" id="path4239-8-5-5-8-2-8-84" cx="640.508" cy="23.449" rx="1.149" ry="1.508"/><ellipse style="fill:none;fill-opacity:1;stroke:red;stroke-width:3.75;stroke-miterlimit:4;stroke-dasharray:none;stroke-dashoffset:0" id="path4239-5-6-4-1-3-3-77" cx="648.81" cy="23.298" rx="1.625" ry="2.25"/><ellipse style="fill:none;fill-opacity:1;stroke:red;stroke-width:2.51262236;stroke-miterlimit:4;stroke-dasharray:none;stroke-dashoffset:0" id="path4239-6-3-1-9-5-3-7" cx="657.049" cy="22.882" rx="1.006" ry="1.631"/><ellipse style="fill:none;fill-opacity:1;stroke:red;stroke-width:2.95568013;stroke-miterlimit:4;stroke-dasharray:none;stroke-dashoffset:0" id="path4239-22-1-3-9-6-0-1" cx="616.42" cy="23.459" rx="1.227" ry="1.852"/><ellipse style="fill:none;fill-opacity:1;stroke:red;stroke-width:3.75;stroke-miterlimit:4;stroke-dasharray:none;stroke-dashoffset:0" id="path4239-5-6-0-5-6-9-5-3" cx="665.063" cy="23.399" rx="1.625" ry="2.25"/><ellipse style="fill:none;fill-opacity:1;stroke:red;stroke-width:2.75363588;stroke-miterlimit:4;stroke-dasharray:none;stroke-dashoffset:0" id="path4239-0-1-9" cx="586.267" cy="32.019" rx="1.373" ry="1.436"/><ellipse style="fill:none;fill-opacity:1;stroke:red;stroke-width:3.43446326;stroke-miterlimit:4;stroke-dasharray:none;stroke-dashoffset:0" id="path4239-2-69-6-4" cx="594.205" cy="32.269" rx="1.783" ry="1.72"/><ellipse style="fill:none;fill-opacity:1;stroke:red;stroke-width:2.93157744;stroke-miterlimit:4;stroke-dasharray:none;stroke-dashoffset:0" id="path4239-8-9-7-79" cx="602.205" cy="31.644" rx="1.347" ry="1.659"/><ellipse style="fill:none;fill-opacity:1;stroke:red;stroke-width:2.04042029;stroke-miterlimit:4;stroke-dasharray:none;stroke-dashoffset:0" id="path4239-5-4-0-1" cx="609.892" cy="31.832" rx=".98" ry="1.105"/><ellipse style="fill:none;fill-opacity:1;stroke:red;stroke-width:3.75;stroke-miterlimit:4;stroke-dasharray:none;stroke-dashoffset:0" id="path4239-6-85-2-5" cx="618.455" cy="31.894" rx="1.625" ry="2.25"/><ellipse style="fill:none;fill-opacity:1;stroke:red;stroke-width:3.75;stroke-miterlimit:4;stroke-dasharray:none;stroke-dashoffset:0" id="path4239-22-5-3-8" cx="608.767" cy="14.207" rx="1.625" ry="2.25"/><ellipse style="fill:none;fill-opacity:1;stroke:red;stroke-width:3.75;stroke-miterlimit:4;stroke-dasharray:none;stroke-dashoffset:0" id="path4239-7-9-5-14" cx="634.799" cy="31.863" rx="1.625" ry="2.25"/><ellipse style="fill:none;fill-opacity:1;stroke:red;stroke-width:3.75;stroke-miterlimit:4;stroke-dasharray:none;stroke-dashoffset:0" id="path4239-2-4-7-6-6" cx="642.611" cy="31.988" rx="1.625" ry="2.25"/><ellipse style="fill:none;fill-opacity:1;stroke:red;stroke-width:2.58145666;stroke-miterlimit:4;stroke-dasharray:none;stroke-dashoffset:0" id="path4239-8-5-5-8-4" cx="650.497" cy="31.889" rx="1.149" ry="1.508"/><ellipse style="fill:none;fill-opacity:1;stroke:red;stroke-width:3.75;stroke-miterlimit:4;stroke-dasharray:none;stroke-dashoffset:0" id="path4239-5-6-4-1-76" cx="658.799" cy="31.738" rx="1.625" ry="2.25"/><ellipse style="fill:none;fill-opacity:1;stroke:red;stroke-width:2.51262236;stroke-miterlimit:4;stroke-dasharray:none;stroke-dashoffset:0" id="path4239-6-3-1-9-4" cx="667.038" cy="31.322" rx="1.006" ry="1.631"/><ellipse style="fill:none;fill-opacity:1;stroke:red;stroke-width:2.95568013;stroke-miterlimit:4;stroke-dasharray:none;stroke-dashoffset:0" id="path4239-22-1-3-9-62" cx="626.409" cy="31.899" rx="1.227" ry="1.852"/><ellipse style="fill:none;fill-opacity:1;stroke:red;stroke-width:3.75;stroke-miterlimit:4;stroke-dasharray:none;stroke-dashoffset:0" id="path4239-5-6-0-5-6-0" cx="675.051" cy="31.839" rx="1.625" ry="2.25"/><ellipse style="fill:none;fill-opacity:1;stroke:red;stroke-width:2.54280019;stroke-miterlimit:4;stroke-dasharray:none;stroke-dashoffset:0" id="path4239-6-3-9-9-6-1" cx="683.114" cy="31.6" rx="1.168" ry="1.439"/><ellipse style="fill:none;fill-opacity:1;stroke:red;stroke-width:2.75363588;stroke-miterlimit:4;stroke-dasharray:none;stroke-dashoffset:0" id="path4239-0-1-4-2" cx="643.158" cy="40.748" rx="1.373" ry="1.436"/><ellipse style="fill:none;fill-opacity:1;stroke:red;stroke-width:3.43446326;stroke-miterlimit:4;stroke-dasharray:none;stroke-dashoffset:0" id="path4239-2-69-6-7-3" cx="651.096" cy="40.998" rx="1.783" ry="1.72"/><ellipse style="fill:none;fill-opacity:1;stroke:red;stroke-width:2.93157744;stroke-miterlimit:4;stroke-dasharray:none;stroke-dashoffset:0" id="path4239-8-9-7-7-2" cx="659.096" cy="40.373" rx="1.347" ry="1.659"/><ellipse style="fill:none;fill-opacity:1;stroke:red;stroke-width:2.04042029;stroke-miterlimit:4;stroke-dasharray:none;stroke-dashoffset:0" id="path4239-5-4-0-6-0" cx="666.783" cy="40.561" rx=".98" ry="1.105"/><ellipse style="fill:none;fill-opacity:1;stroke:red;stroke-width:3.75;stroke-miterlimit:4;stroke-dasharray:none;stroke-dashoffset:0" id="path4239-6-85-2-6-26" cx="675.346" cy="40.623" rx="1.625" ry="2.25"/><ellipse style="fill:none;fill-opacity:1;stroke:red;stroke-width:2.53588033;stroke-miterlimit:4;stroke-dasharray:none;stroke-dashoffset:0" id="path4239-22-5-3-1-4" cx="635.033" cy="41.186" rx="1.232" ry="1.357"/><ellipse style="fill:none;fill-opacity:1;stroke:red;stroke-width:2.95568013;stroke-miterlimit:4;stroke-dasharray:none;stroke-dashoffset:0" id="path4239-22-1-3-9-6-18" cx="683.299" cy="40.628" rx="1.227" ry="1.852"/><ellipse style="fill:none;fill-opacity:1;stroke:red;stroke-width:3.75;stroke-miterlimit:4;stroke-dasharray:none;stroke-dashoffset:0" id="path4239-7-9-5-7-2-1" cx="586.06" cy="41.423" rx="1.625" ry="2.25"/><ellipse style="fill:none;fill-opacity:1;stroke:red;stroke-width:3.75;stroke-miterlimit:4;stroke-dasharray:none;stroke-dashoffset:0" id="path4239-2-4-7-6-1-2-2" cx="593.873" cy="41.548" rx="1.625" ry="2.25"/><ellipse style="fill:none;fill-opacity:1;stroke:red;stroke-width:2.58145666;stroke-miterlimit:4;stroke-dasharray:none;stroke-dashoffset:0" id="path4239-8-5-5-8-2-8-86" cx="601.758" cy="41.449" rx="1.149" ry="1.508"/><ellipse style="fill:none;fill-opacity:1;stroke:red;stroke-width:3.75;stroke-miterlimit:4;stroke-dasharray:none;stroke-dashoffset:0" id="path4239-5-6-4-1-3-3-4" cx="610.06" cy="41.298" rx="1.625" ry="2.25"/><ellipse style="fill:none;fill-opacity:1;stroke:red;stroke-width:2.51262236;stroke-miterlimit:4;stroke-dasharray:none;stroke-dashoffset:0" id="path4239-6-3-1-9-5-3-8" cx="618.299" cy="40.882" rx="1.006" ry="1.631"/><ellipse style="fill:none;fill-opacity:1;stroke:red;stroke-width:2.95568013;stroke-miterlimit:4;stroke-dasharray:none;stroke-dashoffset:0" id="path4239-22-1-3-9-6-0-3" cx="608.17" cy="23.459" rx="1.227" ry="1.852"/><ellipse style="fill:none;fill-opacity:1;stroke:red;stroke-width:3.75;stroke-miterlimit:4;stroke-dasharray:none;stroke-dashoffset:0" id="path4239-5-6-0-5-6-9-5-6" cx="626.313" cy="41.399" rx="1.625" ry="2.25"/><ellipse style="fill:none;fill-opacity:1;stroke:red;stroke-width:2.53588033;stroke-miterlimit:4;stroke-dasharray:none;stroke-dashoffset:0" id="path4239-22-5-3-1-6-5" cx="697.118" cy="-4.951" rx="1.232" ry="1.357"/><ellipse style="fill:none;fill-opacity:1;stroke:red;stroke-width:2.93157744;stroke-miterlimit:4;stroke-dasharray:none;stroke-dashoffset:0" id="path4239-8-9-7-76-2" cx="696.539" cy="3.758" rx="1.347" ry="1.659"/><ellipse style="fill:none;fill-opacity:1;stroke:red;stroke-width:2.58145666;stroke-miterlimit:4;stroke-dasharray:none;stroke-dashoffset:0" id="path4239-8-5-5-8-2-8-84-6" cx="696.968" cy="13.437" rx="1.149" ry="1.508"/><ellipse style="fill:none;fill-opacity:1;stroke:red;stroke-width:2.54280019;stroke-miterlimit:4;stroke-dasharray:none;stroke-dashoffset:0" id="path4239-6-3-9-9-6-1-3" cx="690.304" cy="31.019" rx="1.168" ry="1.439"/><ellipse style="fill:none;fill-opacity:1;stroke:red;stroke-width:2.95568013;stroke-miterlimit:4;stroke-dasharray:none;stroke-dashoffset:0" id="path4239-22-1-3-9-6-18-1" cx="690.49" cy="40.048" rx="1.227" ry="1.852"/><ellipse style="fill:none;fill-opacity:1;stroke:red;stroke-width:3.75;stroke-miterlimit:4;stroke-dasharray:none;stroke-dashoffset:0" id="path4239-7-9-5-7-2-2" cx="697.738" cy="22.762" rx="1.625" ry="2.25"/><ellipse style="fill:none;fill-opacity:1;stroke:red;stroke-width:2.04042029;stroke-miterlimit:4;stroke-dasharray:none;stroke-dashoffset:0" id="path4239-5-4-0-9-9" cx="698.091" cy="40.086" rx=".98" ry="1.105"/><ellipse style="fill:none;fill-opacity:1;stroke:red;stroke-width:2.04042029;stroke-miterlimit:4;stroke-dasharray:none;stroke-dashoffset:0" id="path4239-5-4-0-9-3" cx="697.914" cy="31.777" rx=".98" ry="1.105"/></g><path id="matFlat" d="m 12.375068,87.779578 80.000002,0" style="fill:none;fill-rule:evenodd;stroke:#000;stroke-width:1px;stroke-linecap:butt;stroke-linejoin:miter;stroke-opacity:1"/><g id="matVBit" transform="translate(732.54791,206.10633)"><path style="fill:none;fill-rule:evenodd;stroke:#000;stroke-width:1px;stroke-linecap:butt;stroke-linejoin:miter;stroke-opacity:1" id="path4377" d="m -710,-118.26772 10,0"/><path style="fill:none;fill-rule:evenodd;stroke:#000;stroke-width:1px;stroke-linecap:butt;stroke-linejoin:miter;stroke-opacity:1" id="path4379" d="m -680,-88.267717 20,-30.000003"/><path style="fill:none;fill-rule:evenodd;stroke:#000;stroke-width:1px;stroke-linecap:butt;stroke-linejoin:miter;stroke-opacity:1" id="path4381" d="m -640,-118.26772 -20,0"/><path style="fill:none;fill-rule:evenodd;stroke:#000;stroke-width:1px;stroke-linecap:butt;stroke-linejoin:miter;stroke-opacity:1" id="path4383" d="m -680,-88.267717 -20,-30.000003"/></g><path id="matRotary" d="M 14.116954,138.0401 A 40,40 0 0 1 29.734601,94.164489 40,40 0 0 1 76.302395,94.812856 40,40 0 0 1 90.692458,139.10626" style="fill:none;fill-opacity:1;stroke:#000;stroke-width:1;stroke-miterlimit:4;stroke-dasharray:none;stroke-dashoffset:0"/><g style="stroke-width:1;stroke-miterlimit:4;stroke-dasharray:none" id="matEndmill" transform="translate(732.4955,126.13404)"><g id="g4466"><path id="path4385" d="m -720,-38.267717 20,0" style="fill:none;fill-rule:evenodd;stroke:#000;stroke-width:1;stroke-linecap:butt;stroke-linejoin:miter;stroke-miterlimit:4;stroke-dasharray:none;stroke-opacity:1"/><path id="path4393" d="m -700,-38.267717 0,50" style="fill:none;fill-rule:evenodd;stroke:#000;stroke-width:1;stroke-linecap:butt;stroke-linejoin:miter;stroke-miterlimit:4;stroke-dasharray:none;stroke-opacity:1"/><path id="path4397" d="m -700,11.732283 35,0" style="fill:none;fill-rule:evenodd;stroke:#000;stroke-width:1;stroke-linecap:butt;stroke-linejoin:miter;stroke-miterlimit:4;stroke-dasharray:none;stroke-opacity:1"/><path id="path4399" d="m -665,-38.267717 25,0" style="fill:none;fill-rule:evenodd;stroke:#000;stroke-width:1;stroke-linecap:butt;stroke-linejoin:miter;stroke-miterlimit:4;stroke-dasharray:none;stroke-opacity:1"/><path id="path4401" d="m -665,-38.267717 0,50" style="fill:none;fill-rule:evenodd;stroke:#000;stroke-width:1;stroke-linecap:butt;stroke-linejoin:miter;stroke-miterlimit:4;stroke-dasharray:none;stroke-opacity:1"/></g></g></svg>